<?xml version="1.0" standalone="no"?>
<!DOCTYPE svg PUBLIC "-//W3C//DTD SVG 20010904//EN"
 "http://www.w3.org/TR/2001/REC-SVG-20010904/DTD/svg10.dtd">
<svg version="1.0" xmlns="http://www.w3.org/2000/svg"
 width="1536.000000pt" height="1536.000000pt" viewBox="0 0 1536.000000 1536.000000"
 preserveAspectRatio="xMidYMid meet">

<g transform="translate(0.000000,1536.000000) scale(0.100000,-0.100000)"
fill="#000000" stroke="none">
<path d="M8346 12620 c-101 -30 -126 -161 -43 -221 57 -42 123 -41 172 2 19
17 40 48 46 69 28 91 -75 179 -175 150z m120 -54 c37 -37 41 -59 20 -111 -29
-69 -125 -84 -177 -29 -46 49 -26 139 36 165 46 18 86 10 121 -25z"/>
<path d="M7456 12460 c-72 -22 -139 -97 -151 -171 -11 -61 18 -140 70 -195 24
-26 42 -51 39 -56 -8 -12 -37 -139 -66 -278 l-23 -115 -1 -1575 -2 -1575 -316
-3 -316 -2 0 1542 c0 849 3 1560 6 1581 6 34 12 40 56 59 91 39 147 133 133
222 -20 116 -99 186 -212 186 -137 -1 -221 -92 -211 -229 6 -77 42 -132 113
-172 l55 -31 0 -1578 0 -1578 -280 -1 -280 -1 0 1021 0 1022 -269 271 c-148
149 -332 336 -408 415 l-140 144 23 35 c70 102 45 236 -54 302 -55 36 -153 39
-212 8 -86 -47 -129 -155 -95 -243 43 -115 148 -169 263 -136 26 8 34 6 44 -8
7 -10 184 -193 393 -406 209 -213 384 -394 389 -403 5 -9 9 -77 8 -151 0 -75
-1 -525 -1 -1001 l-1 -865 -1885 3 c-1694 3 -1885 1 -1885 -13 0 -8 1 -15 3
-16 1 0 2953 -3 6560 -6 l6557 -5 0 21 0 21 -2987 0 c-1642 0 -2987 1 -2987 2
-1 2 0 370 2 819 l2 816 38 11 c47 14 117 83 133 129 31 95 -13 203 -101 248
-102 52 -219 15 -275 -86 -38 -71 -31 -153 19 -222 22 -30 83 -67 111 -67 13
0 15 -89 15 -825 l0 -825 -735 -2 c-404 0 -844 -1 -977 -2 l-243 -1 -1 305 -2
305 102 95 c55 52 189 176 296 275 107 99 270 252 364 340 93 88 195 184 227
213 l59 54 0 -281 0 -281 30 0 30 0 0 304 0 303 102 94 c144 132 377 348 548
509 80 75 179 167 220 205 41 38 116 107 165 154 50 47 124 117 164 155 l73
68 47 -22 c150 -70 321 32 321 191 0 210 -235 308 -376 157 -17 -18 -36 -48
-43 -67 -14 -43 -14 -139 0 -180 14 -39 22 -29 -161 -199 -80 -75 -210 -197
-290 -271 -588 -549 -754 -701 -766 -701 -5 0 -9 388 -9 897 l0 898 -25 0 -25
0 -5 -930 -5 -930 -75 -70 c-41 -38 -79 -74 -86 -80 -6 -5 -95 -89 -198 -185
-103 -96 -192 -176 -197 -178 -5 -2 -9 295 -9 736 0 824 -7 752 71 752 32 0
39 3 39 20 0 16 -8 19 -62 22 l-63 3 -8 54 c-8 47 -6 57 12 82 12 15 21 36 21
45 0 9 13 28 28 42 33 31 52 63 52 87 0 19 -85 -104 -107 -153 -17 -41 -28
-35 -36 20 -4 24 -15 61 -27 83 -11 21 -20 46 -21 55 0 9 -4 5 -10 -8 -7 -18
-4 -30 11 -50 30 -40 38 -79 36 -173 l-1 -84 -69 -3 c-67 -3 -68 -3 -51 -22
11 -12 31 -20 49 -20 17 0 41 -3 54 -6 l22 -6 1 -712 c0 -391 4 -736 9 -766
l9 -55 -52 -45 c-117 -102 -367 -346 -367 -357 0 -7 -4 -13 -10 -13 -7 0 -10
360 -10 1059 0 752 -3 1062 -11 1067 -6 3 -8 16 -4 28 3 11 12 109 20 217 10
133 24 242 45 339 17 78 33 146 35 150 3 5 23 6 44 3 52 -7 77 0 133 37 33 22
51 44 67 80 55 128 -2 269 -123 305 -55 17 -77 17 -120 5z m153 -69 c44 -32
65 -76 65 -141 1 -102 -63 -170 -159 -170 -66 0 -111 29 -143 90 -45 87 -11
199 72 236 44 20 125 13 165 -15z m-882 -362 c64 -24 113 -93 113 -159 0 -89
-67 -159 -158 -167 -109 -9 -205 105 -178 211 9 35 64 96 101 112 37 16 84 17
122 3z m-1522 -373 c41 -31 65 -82 65 -136 0 -73 -43 -129 -117 -151 -36 -10
-49 -9 -87 5 -49 19 -102 72 -112 112 -18 69 26 161 90 190 44 20 120 11 161
-20z m4772 -5 c133 -61 132 -261 -1 -322 -81 -37 -144 -22 -209 50 -33 36 -37
47 -37 94 1 147 121 234 247 178z m-510 -1186 c49 -42 67 -82 60 -136 -11 -83
-107 -159 -184 -144 -100 18 -158 106 -132 200 21 75 78 114 165 115 43 0 56
-5 91 -35z"/>
<path d="M8420 12121 c0 -11 39 -25 47 -18 3 3 2 10 -2 16 -8 13 -45 15 -45 2z"/>
<path d="M7693 11738 c3 -7 15 -44 27 -83 12 -38 27 -79 33 -90 6 -11 19 -36
28 -55 10 -19 18 -29 19 -22 0 7 -11 34 -24 60 -13 26 -29 72 -36 102 -15 65
-30 100 -43 100 -5 0 -6 -6 -4 -12z"/>
<path d="M7890 11691 c0 -13 1 -22 3 -20 1 2 10 13 19 24 16 20 16 21 -2 21
-15 0 -20 -7 -20 -25z"/>
<path d="M7881 11634 c0 -12 -8 -38 -16 -58 -8 -20 -12 -36 -8 -36 14 0 34 59
30 87 -3 20 -4 22 -6 7z"/>
<path d="M7702 11310 c2 -21 9 -25 42 -28 25 -2 36 0 31 7 -3 6 -11 9 -16 5
-6 -3 -22 5 -36 17 l-25 24 4 -25z"/>
<path d="M7886 11274 c-9 -24 -8 -24 19 -12 14 6 25 15 25 20 0 15 -38 8 -44
-8z"/>
<path d="M4986 11055 c-82 -29 -125 -86 -134 -175 -9 -95 47 -183 138 -216
l50 -18 0 -533 0 -533 383 1 c366 0 505 7 447 22 -92 23 -170 29 -450 34 -173
3 -317 7 -320 10 -8 8 1 1008 10 1011 5 2 28 16 52 32 111 73 127 222 34 314
-61 62 -133 79 -210 51z m142 -56 c57 -28 82 -69 82 -135 0 -116 -122 -200
-219 -150 -79 41 -116 129 -85 205 36 91 130 124 222 80z"/>
<path d="M92 8192 l-92 -3 0 -114 0 -113 29 29 c33 32 10 30 296 32 l160 2 3
70 c1 39 -1 75 -5 81 -9 13 -225 21 -391 16z"/>
<path d="M11557 8192 c-26 -2 -50 -9 -52 -15 -2 -7 -6 -185 -7 -396 l-3 -383
-24 -19 c-20 -17 -41 -19 -161 -19 -121 0 -141 2 -161 19 l-24 19 0 384 c0
210 -4 389 -8 396 -5 8 -35 12 -87 12 -62 0 -79 -3 -84 -16 -10 -26 -6 -724 5
-799 12 -84 42 -134 96 -161 33 -16 66 -19 242 -22 229 -4 274 3 326 52 57 54
60 77 60 528 0 223 -2 408 -5 411 -9 8 -65 13 -113 9z"/>
<path d="M805 8181 c-71 -12 -116 -44 -143 -100 -15 -32 -17 -77 -17 -396 l0
-360 25 -44 c18 -32 39 -52 73 -70 46 -23 57 -24 230 -25 284 -1 336 13 387
104 l25 45 -1 351 c-1 338 -1 352 -22 395 -23 47 -68 84 -123 99 -38 11 -371
11 -434 1z m378 -179 c15 -14 17 -42 17 -313 0 -249 -2 -300 -15 -312 -28 -29
-273 -35 -323 -8 -38 20 -43 64 -40 350 4 333 -14 309 217 303 96 -3 130 -8
144 -20z"/>
<path d="M1723 8180 c-81 -17 -141 -67 -156 -130 -4 -14 -7 -181 -8 -371 -1
-333 0 -347 20 -387 14 -27 37 -50 68 -69 48 -28 48 -28 268 -32 341 -5 327
-19 333 325 l5 244 -124 -1 c-148 -1 -228 -11 -240 -30 -5 -8 -9 -31 -9 -52 0
-54 25 -71 113 -77 l72 -5 3 -104 c2 -67 -1 -108 -9 -117 -14 -17 -251 -20
-293 -4 l-26 10 0 298 0 299 24 22 c22 21 29 22 230 21 114 -1 210 1 213 4 3
3 6 32 7 65 2 97 4 96 -242 98 -114 1 -226 -2 -249 -7z"/>
<path d="M2425 8167 c-13 -21 -15 -86 -13 -498 l3 -474 85 1 85 2 0 331 c0
182 1 331 2 331 2 0 12 -18 23 -41 24 -46 374 -584 398 -612 13 -15 29 -17 96
-15 l81 3 3 463 c1 255 -1 477 -6 495 l-8 32 -80 0 -79 0 -3 -327 c-1 -181 -6
-328 -11 -328 -4 0 -13 11 -19 24 -6 13 -29 50 -52 83 -23 32 -78 117 -123
188 -100 158 -135 210 -200 298 l-51 67 -58 0 c-49 0 -60 -3 -73 -23z"/>
<path d="M3393 8178 c-9 -15 -14 -831 -6 -925 l5 -63 89 0 89 0 0 488 c0 366
-3 491 -12 500 -16 16 -154 16 -165 0z"/>
<path d="M3716 8174 c-19 -19 -22 -124 -4 -142 8 -8 50 -12 125 -12 l113 0 0
-415 0 -415 90 0 90 0 2 413 3 412 120 3 c108 2 122 4 138 23 25 31 24 125 -2
139 -13 6 -138 10 -340 10 -277 0 -322 -2 -335 -16z"/>
<path d="M4527 8184 c-4 -4 -7 -230 -7 -501 l0 -494 88 3 87 3 0 495 0 495
-80 3 c-45 1 -84 0 -88 -4z"/>
<path d="M4834 8176 c-5 -14 20 -104 104 -366 27 -85 64 -202 82 -260 18 -58
38 -123 45 -145 7 -22 26 -80 41 -128 l27 -88 96 3 96 3 57 170 c31 94 104
311 162 484 71 212 103 318 96 325 -14 14 -130 20 -161 8 -15 -6 -29 -21 -32
-34 -3 -13 -26 -90 -52 -173 -50 -160 -62 -200 -121 -392 -34 -113 -54 -151
-54 -105 0 10 -13 63 -29 118 -16 54 -59 203 -96 329 -37 127 -71 238 -76 248
-8 14 -24 17 -95 17 -62 0 -86 -4 -90 -14z"/>
<path d="M5800 8182 c-19 -2 -38 -9 -43 -15 -8 -13 -8 -916 0 -954 l5 -23 287
0 c210 0 290 3 299 12 17 17 16 137 -1 144 -7 2 -102 5 -212 7 l-200 2 0 125
0 125 173 3 173 2 -3 78 -3 77 -167 3 -168 2 0 125 0 125 203 2 202 3 3 65 c1
36 -1 70 -5 77 -6 8 -83 12 -258 15 -138 1 -266 2 -285 0z"/>
<path d="M7050 8171 c-64 -23 -105 -64 -120 -121 -7 -26 -10 -160 -8 -388 l3
-349 25 -37 c16 -23 46 -47 80 -64 52 -25 63 -27 205 -28 83 -1 179 1 214 5
59 5 67 9 83 38 20 33 28 106 14 120 -4 4 -97 8 -206 8 -180 0 -200 2 -219 19
-20 19 -21 27 -21 311 0 235 3 295 14 311 13 17 31 19 218 24 l203 5 3 68 c3
65 2 67 -25 79 -17 7 -104 13 -218 15 -168 3 -196 1 -245 -16z"/>
<path d="M7865 8184 c-88 -21 -108 -30 -134 -60 -17 -19 -33 -53 -40 -84 -14
-65 -15 -651 -1 -701 16 -57 51 -102 100 -126 42 -22 56 -23 265 -23 209 0
223 1 265 23 35 17 51 34 73 77 l28 55 -3 345 c-5 412 -7 423 -103 473 -36 19
-60 21 -235 23 -107 2 -204 1 -215 -2z m351 -185 c18 -20 19 -42 22 -310 2
-193 -1 -295 -8 -309 -10 -19 -21 -20 -180 -20 -162 0 -170 1 -181 21 -7 15
-10 111 -7 316 3 278 4 295 22 309 15 11 56 14 166 14 137 0 148 -1 166 -21z"/>
<path d="M8613 8178 c-9 -14 -14 -902 -6 -955 l5 -33 89 0 88 0 -6 320 c-4
189 -2 320 3 320 5 -1 50 -65 100 -143 51 -78 121 -187 156 -242 36 -55 84
-133 108 -172 l43 -73 89 0 88 0 -2 493 -3 492 -85 0 -85 0 -5 -323 -5 -323
-114 178 c-63 98 -157 244 -210 325 l-96 148 -72 0 c-47 0 -75 -4 -80 -12z"/>
<path d="M9575 8178 c-3 -7 -4 -231 -3 -498 l3 -485 88 -3 87 -3 0 195 0 196
163 2 162 3 2 83 3 82 -165 0 -165 0 0 135 0 135 195 0 195 0 0 85 0 85 -280
0 c-215 0 -282 -3 -285 -12z"/>
<path d="M10263 8178 c-11 -17 -6 -969 5 -980 5 -5 132 -7 283 -6 l274 3 0 80
0 80 -192 3 -191 2 -5 73 c-2 39 -3 220 -2 400 2 275 0 330 -12 343 -19 18
-148 20 -160 2z"/>
<path d="M11904 8180 c-30 -12 -34 -85 -31 -556 2 -370 3 -393 21 -413 19 -20
27 -21 303 -21 l283 0 0 79 c0 63 -3 80 -16 85 -9 3 -105 6 -215 6 l-200 0 3
120 3 120 178 3 c145 2 179 5 187 17 14 22 12 124 -2 138 -8 8 -65 12 -190 12
l-179 0 3 120 3 120 125 4 c69 2 162 4 208 5 l82 1 0 66 c0 111 20 104 -283
103 -144 0 -272 -4 -283 -9z"/>
<path d="M12653 8178 c-13 -21 -17 -942 -4 -967 10 -18 21 -21 86 -21 40 0 76
4 80 10 3 5 6 151 7 325 1 173 4 315 7 315 3 0 49 -67 102 -148 174 -266 320
-477 342 -494 12 -10 38 -18 58 -18 48 0 80 35 88 97 4 26 7 238 6 471 0 365
-2 424 -15 432 -22 14 -123 12 -143 -2 -14 -11 -16 -52 -21 -322 -3 -169 -7
-310 -10 -313 -2 -3 -12 10 -22 29 -9 18 -42 69 -72 113 -30 44 -89 132 -131
196 -100 152 -100 152 -108 169 -10 22 -85 124 -97 132 -19 13 -144 9 -153 -4z"/>
<path d="M13780 8181 c-49 -10 -95 -36 -118 -66 -36 -45 -42 -112 -42 -451 0
-303 1 -327 20 -363 24 -48 70 -87 118 -101 55 -15 431 -13 462 3 23 12 25 18
25 82 l0 70 -202 3 -202 2 -20 27 c-20 25 -21 38 -21 309 0 277 1 285 21 305
21 21 27 22 216 17 106 -3 195 -2 198 2 2 4 7 32 9 63 5 45 2 60 -13 79 -19
23 -23 23 -218 25 -109 1 -214 -2 -233 -6z"/>
<path d="M14449 8176 l-24 -12 -3 -473 c-1 -342 1 -478 9 -487 9 -11 67 -14
290 -14 325 0 314 -3 307 92 -2 31 -8 61 -12 65 -4 5 -98 10 -209 13 l-202 5
-3 117 -3 117 43 5 c24 4 97 5 164 4 150 -4 158 1 152 84 -2 32 -8 61 -12 65
-4 5 -83 10 -174 13 l-167 5 0 120 0 120 197 3 c190 2 198 3 209 24 16 30 4
120 -18 136 -23 17 -509 16 -544 -2z"/>
<path d="M0 7319 l0 -116 31 -7 c60 -12 434 -7 447 6 14 14 16 126 2 148 -7
11 -32 13 -132 10 -259 -9 -300 -4 -328 43 l-20 32 0 -116z"/>
<path d="M4950 6920 c-1016 -4 -1155 -7 -1158 -20 -2 -13 605 -15 5405 -17
2975 -2 5435 1 5468 5 38 4 60 12 60 20 0 10 -857 13 -4310 15 -2371 1 -4830
0 -5465 -3z"/>
<path d="M6043 6665 c0 -27 2 -38 4 -22 2 15 2 37 0 50 -2 12 -4 0 -4 -28z"/>
<path d="M7620 6635 l0 -25 -356 0 c-328 0 -358 1 -370 18 -13 16 -13 16 -14
0 0 -19 11 -19 -1192 -18 l-398 0 0 -30 0 -30 360 0 360 0 -2 -592 -3 -593
-572 -3 -571 -3 -23 40 c-27 49 -86 81 -150 81 -100 0 -164 -74 -156 -184 3
-54 7 -62 44 -97 93 -86 240 -48 279 73 l9 28 600 2 600 3 3 622 2 623 395 2
395 3 -2 -599 -3 -598 -178 -1 c-173 -1 -178 -2 -175 -22 3 -19 10 -20 180
-23 l177 -2 5 -453 c7 -532 12 -637 31 -637 21 0 26 246 28 1338 l2 994 342 1
343 2 0 -1917 c0 -1379 3 -1919 11 -1924 6 -3 18 1 27 10 16 15 17 163 17
1921 0 1048 3 1904 6 1902 4 -1 151 -144 328 -318 l321 -316 0 -496 0 -496
-45 -20 -45 -20 -2 -78 c-5 -186 -4 -194 26 -220 21 -18 39 -23 83 -23 107 0
139 43 135 180 -4 101 -20 141 -67 163 l-35 16 4 508 3 508 -351 349 c-193
191 -363 354 -378 362 -27 14 -28 14 -28 -11z m-2850 -1234 c79 -78 27 -201
-83 -201 -31 0 -46 7 -73 34 -29 29 -34 41 -34 81 0 40 5 52 34 81 29 29 41
34 81 34 38 0 52 -5 75 -29z m3650 -559 c7 -15 15 -63 18 -107 4 -71 2 -83
-18 -107 -43 -55 -50 -40 -50 105 0 74 3 136 6 140 11 10 31 -4 44 -31z m-95
-14 c-1 -24 -2 -87 -3 -140 -1 -54 -6 -98 -11 -98 -5 0 -19 8 -31 18 -21 17
-23 26 -21 123 2 128 5 139 40 139 26 0 28 -2 26 -42z"/>
<path d="M9537 6422 c-16 -18 0 -36 333 -373 l350 -354 0 -356 0 -357 -23 -6
c-41 -10 -106 -65 -128 -108 -42 -80 -23 -205 38 -260 31 -29 106 -58 148 -58
76 0 161 57 191 128 21 51 18 138 -7 188 -26 55 -79 101 -124 110 l-35 6 0
367 0 366 -358 363 c-196 199 -360 362 -363 362 -3 0 -13 -8 -22 -18z m792
-1506 c43 -20 81 -78 87 -132 11 -93 -52 -173 -145 -182 -96 -9 -171 54 -179
152 -11 131 117 219 237 162z"/>
<path d="M7535 2650 c-80 -6 -77 -7 40 -13 l30 -2 3 -72 3 -73 29 0 30 0 0 74
0 74 43 -5 c23 -3 53 0 67 6 22 8 19 10 -26 10 -28 1 -71 3 -95 5 -24 2 -80 0
-124 -4z"/>
</g>
</svg>
